<?xml version="1.0" standalone="no"?>
<!DOCTYPE svg PUBLIC "-//W3C//DTD SVG 20010904//EN"
 "http://www.w3.org/TR/2001/REC-SVG-20010904/DTD/svg10.dtd">
<svg version="1.0" xmlns="http://www.w3.org/2000/svg"
 width="300.000000pt" height="300.000000pt" viewBox="0 0 300.000000 300.000000"
 preserveAspectRatio="xMidYMid meet">
<metadata>
Created by potrace 1.10, written by Peter Selinger 2001-2011
</metadata>
<g transform="translate(0.000000,300.000000) scale(0.100000,-0.100000)"
fill="#000000" stroke="none">
<path d="M1950 2821 c-104 -32 -246 -150 -298 -248 -84 -159 -101 -401 -37
-541 34 -75 113 -154 186 -187 52 -23 71 -27 133 -23 150 7 314 125 390 278
84 171 88 382 11 545 -32 68 -118 147 -181 169 -49 17 -160 20 -204 7z"/>
<path d="M915 2790 c-164 -66 -234 -194 -222 -405 11 -186 64 -317 178 -438
163 -176 342 -189 502 -38 174 165 183 431 21 677 -56 86 -127 152 -202 189
-77 39 -202 45 -277 15z"/>
<path d="M278 2027 c-25 -8 -72 -29 -103 -48 -97 -58 -134 -124 -135 -241 0
-93 16 -160 60 -253 84 -176 262 -286 440 -272 139 10 249 81 283 182 23 68
22 187 -3 267 -46 148 -182 290 -336 351 -59 23 -151 29 -206 14z"/>
<path d="M2521 1995 c-177 -50 -328 -209 -361 -383 -27 -138 20 -287 109 -343
94 -60 193 -73 302 -39 168 51 311 186 369 347 42 117 14 270 -67 355 -63 66
-231 96 -352 63z"/>
<path d="M1369 1665 c-163 -40 -238 -98 -388 -300 -133 -179 -163 -205 -321
-286 -81 -41 -121 -69 -177 -124 -63 -62 -74 -78 -92 -139 -56 -182 -1 -365
148 -493 198 -170 363 -189 826 -97 l130 26 150 -31 c287 -58 467 -65 606 -21
121 37 265 150 316 247 50 93 66 163 61 262 -4 69 -10 97 -33 141 -44 87 -130
161 -264 227 -98 48 -128 69 -192 132 -42 42 -113 129 -159 194 -45 65 -101
133 -124 152 -125 102 -329 148 -487 110z"/>
</g>
</svg>
